# xmcd
#
# Track frame offsets:
#	225
#	15598
#	36669
#	53748
#	78877
#	101891
#	122239
#	140038
#	156102
#	168874
#	185923
#	203165
#	225422
#	242168
#	259652
#	276461
#	295638
#	315372
#	333864
#	350584
#
# Disc length: 4963 seconds
#
# Revision: 0
# Processed by: cddbd v1.5.2PL0 Copyright (c) Steve Scherf et al.
# Submitted via: audiograbber 1.83.01
#
DISCID=25136014
DTITLE=Demis Roussos - The Story Of Demis Roussos
DYEAR=1900
DGENRE=Hits
TTITLE0=Rain And Tears
TTITLE1=We Shall Dance
TTITLE2=Forever And Ever
TTITLE3=My Friend The Wind
TTITLE4=My Reason
TTITLE5=Marie Jolie
TTITLE6=Goodbye, My Love, Goodbye
TTITLE7=Lovely Lady Of Arcadia
TTITLE8=Follow Me 
TTITLE9=Summerwine
TTITLE10=It's Five O' Clock
TTITLE11=Spring, Summer, Winter And Fall
TTITLE12=I Want To Live
TTITLE13=Break
TTITLE14=End Of The World
TTITLE15=Summer In Her Eyes
TTITLE16=Greater Love
TTITLE17=Tropicana Bay
TTITLE18=Island Of Love
TTITLE19=I Found You
EXTD=
EXTT0=
EXTT1=
EXTT2=
EXTT3=
EXTT4=
EXTT5=
EXTT6=
EXTT7=
EXTT8=
EXTT9=
EXTT10=
EXTT11=
EXTT12=
EXTT13=
EXTT14=
EXTT15=
EXTT16=
EXTT17=
EXTT18=
EXTT19=
PLAYORDER=
